<?xml version="1.0" encoding="UTF-8"?>
<svg width="22px" height="20px" viewBox="0 0 22 20" version="1.1" xmlns="http://www.w3.org/2000/svg" xmlns:xlink="http://www.w3.org/1999/xlink">
    <!-- Generator: Sketch 52.2 (67145) - http://www.bohemiancoding.com/sketch -->
    <title>Fill 1330 + Fill 1331 Copy 2@2x</title>
    <desc>Created with Sketch.</desc>
    <g id="Page-1" stroke="none" stroke-width="1" fill="none" fill-rule="evenodd">
        <g id="All" transform="translate(-279.000000, -759.000000)" fill="#FFFFFF" stroke="#018FAC">
            <g id="Group-7" transform="translate(279.000000, 668.000000)">
                <g id="Fill-1330-+-Fill-1331-Copy-2" transform="translate(1.000000, 92.107339)">
                    <path d="M0,9.69550939 C0,4.88362808 4.038,0.969550939 9,0.969550939 L9,2.90865282 C5.14,2.90865282 2,5.95304276 2,9.69550939 C2,13.437976 5.14,16.482366 9,16.482366 C12.86,16.482366 16,13.437976 16,9.69550939 L18,9.69550939 C18,14.5073907 13.962,18.4214678 9,18.4214678 C4.038,18.4214678 0,14.5073907 0,9.69550939 Z" id="Fill-1330"></path>
                    <polygon id="Fill-1331" stroke-width="1.5" points="10.0928 13.4383638 5.1158 8.61387836 6.8838 6.8997123 9.9068 9.83066479 18.0328 0.202054416 19.9668 1.73685355"></polygon>
                </g>
            </g>
        </g>
    </g>
</svg>