<?xml version="1.0" encoding="UTF-8"?>
<svg width="339px" height="166px" viewBox="0 0 339 166" version="1.1" xmlns="http://www.w3.org/2000/svg" xmlns:xlink="http://www.w3.org/1999/xlink">
    <!-- Generator: Sketch 52.2 (67145) - http://www.bohemiancoding.com/sketch -->
    <title>Path@2x</title>
    <desc>Created with Sketch.</desc>
    <g id="Page-1" stroke="none" stroke-width="1" fill="none" fill-rule="evenodd" opacity="0.487898065">
        <g id="Modules-" transform="translate(-146.000000, -224.000000)" fill="#FFFFFF" fill-rule="nonzero">
            <g id="Cloud-Background">
                <path d="M463.274324,336.315485 C459.061794,325.299085 448.010336,317.131665 434.663991,315.916168 C435.618527,313.741609 436.150094,311.374724 436.150094,308.895008 C436.150094,298.327367 426.604743,289.762474 414.824522,289.762474 C418.682673,284.964596 421.346226,278.797361 421.346226,272.068535 C421.346226,256.708144 407.471172,244.258278 390.349556,244.258278 C378.597914,244.258278 368.372386,250.12805 363.119585,258.78013 C358.226878,238.883424 338.461714,224 314.815535,224 C289.151687,224 268.051889,241.53495 265.591246,263.985738 C261.815974,259.393007 255.748674,256.413245 248.898313,256.413245 C237.449608,256.413245 228.167182,264.742218 228.167182,275.014961 C228.167182,278.210127 229.067418,281.218097 230.64783,283.841416 C228.547282,283.497794 226.381001,283.315726 224.171853,283.315726 C205.301208,283.315726 189.857173,296.450271 188.571123,313.087702 C184.089952,308.733454 177.671132,306.007562 170.543555,306.007562 C156.988585,306.007562 146,315.867446 146,328.03267 C146,340.197894 156.988585,350.055214 170.543555,350.055214 C172.232568,350.055214 173.88157,349.903918 175.476273,349.611583 C179.154377,362.223002 191.940574,371.531553 207.150263,371.531553 C221.474005,371.531553 233.637183,363.276946 238.081201,351.783578 C241.816463,372.97784 262.26752,389.184463 286.939681,389.184463 C309.268372,389.184463 328.139017,375.906315 334.289195,357.668736 C341.639687,361.556274 350.20764,363.787249 359.358602,363.787249 C374.616874,363.787249 388.263297,357.586677 397.337096,347.839625 C398.294489,363.877001 413.084067,376.619202 431.194514,376.619202 C441.622952,376.619202 450.94253,372.395735 457.161298,365.754097 C459.987751,367.395274 463.345771,368.351773 466.961001,368.351773 C476.923604,368.351773 485,361.10495 485,352.1631 C485,343.223814 476.923604,335.976992 466.961001,335.976992 C465.697814,335.976992 464.463206,336.092388 463.274324,336.315485 Z" id="Path"></path>
            </g>
        </g>
    </g>
</svg>