<?xml version="1.0" encoding="UTF-8"?>
<svg width="360px" height="174px" viewBox="0 0 360 174" version="1.1" xmlns="http://www.w3.org/2000/svg" xmlns:xlink="http://www.w3.org/1999/xlink">
    <!-- Generator: Sketch 52.2 (67145) - http://www.bohemiancoding.com/sketch -->
    <title>Fill 26@2x</title>
    <desc>Created with Sketch.</desc>
    <g id="Page-1" stroke="none" stroke-width="1" fill="none" fill-rule="evenodd" opacity="0.871419271">
        <g id="Videos" transform="translate(-1066.000000, -445.000000)" fill="#FFFFFF">
            <g id="Cloud-Background">
                <g id="Group-28-Copy" transform="translate(1066.000000, 445.000000)">
                    <path d="M19.1457896,117.935714 C20.4870679,117.935714 21.7946226,118.058561 23.05849,118.292654 C27.5276293,106.689701 39.2565332,98.0890066 53.4234977,96.8093444 C52.4079585,94.5189197 51.8446216,92.0257966 51.8446216,89.4146032 C51.8446216,78.2846135 61.9762546,69.2614595 74.474669,69.2614595 C70.3818541,64.2110594 67.5552059,57.7131055 67.5552059,50.6282132 C67.5552059,34.4512358 82.2816751,21.3365753 100.449481,21.3365753 C112.923369,21.3365753 123.774694,27.5205854 129.350579,36.6324626 C134.542476,15.6787623 155.520069,0 180.61347,0 C207.850616,0 230.242299,18.4708145 232.854343,42.1128292 C236.86055,37.2780949 243.301751,34.1407045 250.568414,34.1407045 C262.719629,34.1407045 272.569977,42.9120209 272.569977,53.7301143 C272.569977,57.0968202 271.616519,60.2615101 269.939538,63.0276279 C272.167593,62.6652275 274.466161,62.4727663 276.814548,62.4727663 C296.83715,62.4727663 313.228337,76.3081326 314.594142,93.8302909 C319.352997,89.2460291 326.159026,86.3720784 333.725369,86.3720784 C348.111537,86.3720784 359.772993,96.7581579 359.772993,109.568429 C359.772993,122.381431 348.111537,132.76478 333.725369,132.76478 C331.934187,132.76478 330.182095,132.601666 328.493617,132.295912 C324.587048,145.579147 311.019443,155.382383 294.876584,155.382383 C279.677985,155.382383 266.764924,146.686822 262.04899,134.582924 C258.085704,156.905693 236.382288,173.972633 210.199003,173.972633 C186.500532,173.972633 166.47333,159.991214 159.947054,140.784679 C152.145413,144.875503 143.051546,147.225304 133.34299,147.225304 C117.14648,147.225304 102.667572,140.693909 93.0356613,130.429994 C92.0224213,147.322217 76.3233337,160.739902 57.1024325,160.739902 C46.0380362,160.739902 36.1463004,156.291455 29.543379,149.299381 C26.5481129,151.026754 22.9803126,152.034104 19.1457896,152.034104 C8.57191798,152.034104 0,144.39981 0,134.983544 C0,125.569325 8.57191798,117.935714 19.1457896,117.935714 L191.693711,50.6282132" id="Fill-26"></path>
                </g>
            </g>
        </g>
    </g>
</svg>