<?xml version="1.0" encoding="UTF-8"?>
<svg width="233px" height="113px" viewBox="0 0 233 113" version="1.1" xmlns="http://www.w3.org/2000/svg" xmlns:xlink="http://www.w3.org/1999/xlink">
    <!-- Generator: Sketch 52.2 (67145) - http://www.bohemiancoding.com/sketch -->
    <title>Group 3@2x</title>
    <desc>Created with Sketch.</desc>
    <defs>
        <linearGradient x1="47.6633505%" y1="-18.0296252%" x2="50%" y2="100%" id="linearGradient-1">
            <stop stop-color="#2BC0E4" offset="0%"></stop>
            <stop stop-color="#FCFCFC" offset="100%"></stop>
        </linearGradient>
        <linearGradient x1="47.6633505%" y1="-18.0296252%" x2="50%" y2="100%" id="linearGradient-2">
            <stop stop-color="#FFFFFF" offset="0%"></stop>
            <stop stop-color="#FCFCFC" offset="100%"></stop>
        </linearGradient>
    </defs>
    <g id="Page-1" stroke="none" stroke-width="1" fill="none" fill-rule="evenodd">
        <g id="Modules--Copy" transform="translate(-1099.000000, -125.000000)">
            <g id="Group-3" transform="translate(1099.000000, 125.000000)">
                <path d="M212.452128,75.2083042 C209.631349,67.8315404 202.23111,62.3625012 193.294177,61.5485845 C193.93335,60.0924636 194.289296,58.5075583 194.289296,56.8470996 C194.289296,49.7708326 187.897571,44.0356392 180.009341,44.0356392 C182.592822,40.8229006 184.376382,36.6932179 184.376382,32.1874851 C184.376382,21.9019137 175.085416,13.5652778 163.620499,13.5652778 C155.751406,13.5652778 148.904223,17.4957741 145.38686,23.2893497 C142.110623,9.96618638 128.875543,-3.55271368e-14 113.041671,-3.55271368e-14 C95.8567346,-3.55271368e-14 81.727961,11.7416924 80.0802738,26.775111 C77.5522893,23.6997423 73.4895253,21.7044445 68.9024102,21.7044445 C61.2361679,21.7044445 55.0205026,27.2816625 55.0205026,34.1604603 C55.0205026,36.2999966 55.623315,38.3141828 56.6815856,40.0708004 C55.2750234,39.8407058 53.8244463,39.71879 52.3451639,39.71879 C39.7090685,39.71879 29.3674875,48.513898 28.506327,59.654597 C25.505661,56.7389208 21.2075131,54.9136183 16.4347701,54.9136183 C7.35813824,54.9136183 0,61.5159592 0,69.6619944 C0,77.8080295 7.35813824,84.4086533 16.4347701,84.4086533 C17.565761,84.4086533 18.6699601,84.307343 19.7377992,84.1115909 C22.2007183,92.5564056 30.7625675,98.7895649 40.947226,98.7895649 C50.5386405,98.7895649 58.6833054,93.2621435 61.6590934,85.5659948 C64.1602863,99.7580227 77.8546523,110.610245 94.3755385,110.610245 C109.327199,110.610245 121.963294,101.718978 126.081555,89.5067938 C131.003566,92.1099535 136.740809,93.6038511 142.868444,93.6038511 C153.085636,93.6038511 162.223506,89.4518459 168.299471,82.9250584 C168.940558,93.6639505 178.843904,102.196338 190.970957,102.196338 C197.954012,102.196338 204.194556,99.3682356 208.358745,94.9208851 C210.251385,96.0198443 212.49997,96.6603315 214.920788,96.6603315 C221.591912,96.6603315 227,91.8077397 227,85.8201291 C227,79.8342356 221.591912,74.9816438 214.920788,74.9816438 C214.074937,74.9816438 213.248223,75.0589144 212.452128,75.2083042 Z" id="cloud2" fill="url(#linearGradient-1)" opacity="0.228004092"></path>
                <path d="M218.452128,77.2083042 C215.631349,69.8315404 208.23111,64.3625012 199.294177,63.5485845 C199.93335,62.0924636 200.289296,60.5075583 200.289296,58.8470996 C200.289296,51.7708326 193.897571,46.0356392 186.009341,46.0356392 C188.592822,42.8229006 190.376382,38.6932179 190.376382,34.1874851 C190.376382,23.9019137 181.085416,15.5652778 169.620499,15.5652778 C161.751406,15.5652778 154.904223,19.4957741 151.38686,25.2893497 C148.110623,11.9661864 134.875543,2 119.041671,2 C101.856735,2 87.727961,13.7416924 86.0802738,28.775111 C83.5522893,25.6997423 79.4895253,23.7044445 74.9024102,23.7044445 C67.2361679,23.7044445 61.0205026,29.2816625 61.0205026,36.1604603 C61.0205026,38.2999966 61.623315,40.3141828 62.6815856,42.0708004 C61.2750234,41.8407058 59.8244463,41.71879 58.3451639,41.71879 C45.7090685,41.71879 35.3674875,50.513898 34.506327,61.654597 C31.505661,58.7389208 27.2075131,56.9136183 22.4347701,56.9136183 C13.3581382,56.9136183 6,63.5159592 6,71.6619944 C6,79.8080295 13.3581382,86.4086533 22.4347701,86.4086533 C23.565761,86.4086533 24.6699601,86.307343 25.7377992,86.1115909 C28.2007183,94.5564056 36.7625675,100.789565 46.947226,100.789565 C56.5386405,100.789565 64.6833054,95.2621435 67.6590934,87.5659948 C70.1602863,101.758023 83.8546523,112.610245 100.375538,112.610245 C115.327199,112.610245 127.963294,103.718978 132.081555,91.5067938 C137.003566,94.1099535 142.740809,95.6038511 148.868444,95.6038511 C159.085636,95.6038511 168.223506,91.4518459 174.299471,84.9250584 C174.940558,95.6639505 184.843904,104.196338 196.970957,104.196338 C203.954012,104.196338 210.194556,101.368236 214.358745,96.9208851 C216.251385,98.0198443 218.49997,98.6603315 220.920788,98.6603315 C227.591912,98.6603315 233,93.8077397 233,87.8201291 C233,81.8342356 227.591912,76.9816438 220.920788,76.9816438 C220.074937,76.9816438 219.248223,77.0589144 218.452128,77.2083042 Z" id="cloud2.1" fill="url(#linearGradient-2)" opacity="0.765229725"></path>
            </g>
        </g>
    </g>
</svg>