<?xml version="1.0" encoding="UTF-8"?>
<svg width="227px" height="111px" viewBox="0 0 227 111" version="1.1" xmlns="http://www.w3.org/2000/svg" xmlns:xlink="http://www.w3.org/1999/xlink">
    <!-- Generator: Sketch 52.2 (67145) - http://www.bohemiancoding.com/sketch -->
    <title>Fill 14 Copy 2@2x</title>
    <desc>Created with Sketch.</desc>
    <defs>
        <linearGradient x1="47.6633505%" y1="-18.0296252%" x2="50%" y2="100%" id="linearGradient-1">
            <stop stop-color="#FFFFFF" offset="0%"></stop>
            <stop stop-color="#FCFCFC" offset="100%"></stop>
        </linearGradient>
    </defs>
    <g id="Page-1" stroke="none" stroke-width="1" fill="none" fill-rule="evenodd" fill-opacity="0.52">
        <g id="Modules-" transform="translate(0.000000, -445.000000)" fill="url(#linearGradient-1)">
            <g id="Cloud-Background">
                <path d="M212.452128,520.208304 C209.631349,512.83154 202.23111,507.362501 193.294177,506.548585 C193.93335,505.092464 194.289296,503.507558 194.289296,501.8471 C194.289296,494.770833 187.897571,489.035639 180.009341,489.035639 C182.592822,485.822901 184.376382,481.693218 184.376382,477.187485 C184.376382,466.901914 175.085416,458.565278 163.620499,458.565278 C155.751406,458.565278 148.904223,462.495774 145.38686,468.28935 C142.110623,454.966186 128.875543,445 113.041671,445 C95.8567346,445 81.727961,456.741692 80.0802738,471.775111 C77.5522893,468.699742 73.4895253,466.704444 68.9024102,466.704444 C61.2361679,466.704444 55.0205026,472.281663 55.0205026,479.16046 C55.0205026,481.299997 55.623315,483.314183 56.6815856,485.0708 C55.2750234,484.840706 53.8244463,484.71879 52.3451639,484.71879 C39.7090685,484.71879 29.3674875,493.513898 28.506327,504.654597 C25.505661,501.738921 21.2075131,499.913618 16.4347701,499.913618 C7.35813824,499.913618 0,506.515959 0,514.661994 C0,522.80803 7.35813824,529.408653 16.4347701,529.408653 C17.565761,529.408653 18.6699601,529.307343 19.7377992,529.111591 C22.2007183,537.556406 30.7625675,543.789565 40.947226,543.789565 C50.5386405,543.789565 58.6833054,538.262144 61.6590934,530.565995 C64.1602863,544.758023 77.8546523,555.610245 94.3755385,555.610245 C109.327199,555.610245 121.963294,546.718978 126.081555,534.506794 C131.003566,537.109953 136.740809,538.603851 142.868444,538.603851 C153.085636,538.603851 162.223506,534.451846 168.299471,527.925058 C168.940558,538.66395 178.843904,547.196338 190.970957,547.196338 C197.954012,547.196338 204.194556,544.368236 208.358745,539.920885 C210.251385,541.019844 212.49997,541.660331 214.920788,541.660331 C221.591912,541.660331 227,536.80774 227,530.820129 C227,524.834236 221.591912,519.981644 214.920788,519.981644 C214.074937,519.981644 213.248223,520.058914 212.452128,520.208304 Z" id="Fill-14-Copy-2"></path>
            </g>
        </g>
    </g>
</svg>