<?xml version="1.0" encoding="UTF-8"?>
<svg width="369px" height="180px" viewBox="0 0 369 180" version="1.1" xmlns="http://www.w3.org/2000/svg" xmlns:xlink="http://www.w3.org/1999/xlink">
    <!-- Generator: Sketch 52.2 (67145) - http://www.bohemiancoding.com/sketch -->
    <title>Group 2@1x</title>
    <desc>Created with Sketch.</desc>
    <defs>
        <linearGradient x1="47.6633505%" y1="-18.0296252%" x2="50%" y2="100%" id="linearGradient-1">
            <stop stop-color="#2BC0E4" offset="0%"></stop>
            <stop stop-color="#FCFCFC" offset="100%"></stop>
        </linearGradient>
        <path d="M28.1457896,123.935714 C29.4870679,123.935714 30.7946226,124.058561 32.05849,124.292654 C36.5276293,112.689701 48.2565332,104.089007 62.4234977,102.809344 C61.4079585,100.51892 60.8446216,98.0257966 60.8446216,95.4146032 C60.8446216,84.2846135 70.9762546,75.2614595 83.474669,75.2614595 C79.3818541,70.2110594 76.5552059,63.7131055 76.5552059,56.6282132 C76.5552059,40.4512358 91.2816751,27.3365753 109.449481,27.3365753 C121.923369,27.3365753 132.774694,33.5205854 138.350579,42.6324626 C143.542476,21.6787623 164.520069,6 189.61347,6 C216.850616,6 239.242299,24.4708145 241.854343,48.1128292 C245.86055,43.2780949 252.301751,40.1407045 259.568414,40.1407045 C271.719629,40.1407045 281.569977,48.9120209 281.569977,59.7301143 C281.569977,63.0968202 280.616519,66.2615101 278.939538,69.0276279 C281.167593,68.6652275 283.466161,68.4727663 285.814548,68.4727663 C305.83715,68.4727663 322.228337,82.3081326 323.594142,99.8302909 C328.352997,95.2460291 335.159026,92.3720784 342.725369,92.3720784 C357.111537,92.3720784 368.772993,102.758158 368.772993,115.568429 C368.772993,128.381431 357.111537,138.76478 342.725369,138.76478 C340.934187,138.76478 339.182095,138.601666 337.493617,138.295912 C333.587048,151.579147 320.019443,161.382383 303.876584,161.382383 C288.677985,161.382383 275.764924,152.686822 271.04899,140.582924 C267.085704,162.905693 245.382288,179.972633 219.199003,179.972633 C195.500532,179.972633 175.47333,165.991214 168.947054,146.784679 C161.145413,150.875503 152.051546,153.225304 142.34299,153.225304 C126.14648,153.225304 111.667572,146.693909 102.035661,136.429994 C101.022421,153.322217 85.3233337,166.739902 66.1024325,166.739902 C55.0380362,166.739902 45.1463004,162.291455 38.543379,155.299381 C35.5481129,157.026754 31.9803126,158.034104 28.1457896,158.034104 C17.571918,158.034104 9,150.39981 9,140.983544 C9,131.569325 17.571918,123.935714 28.1457896,123.935714 L200.693711,56.6282132" id="path-2"></path>
        <filter x="-0.6%" y="-1.1%" width="101.1%" height="102.3%" filterUnits="objectBoundingBox" id="filter-3">
            <feGaussianBlur stdDeviation="1.5" in="SourceAlpha" result="shadowBlurInner1"></feGaussianBlur>
            <feOffset dx="0" dy="1" in="shadowBlurInner1" result="shadowOffsetInner1"></feOffset>
            <feComposite in="shadowOffsetInner1" in2="SourceAlpha" operator="arithmetic" k2="-1" k3="1" result="shadowInnerInner1"></feComposite>
            <feColorMatrix values="0 0 0 0 0.819607843   0 0 0 0 0.945098039   0 0 0 0 0.968627451  0 0 0 1 0" type="matrix" in="shadowInnerInner1"></feColorMatrix>
        </filter>
    </defs>
    <g id="Page-1" stroke="none" stroke-width="1" fill="none" fill-rule="evenodd">
        <g id="Modules--Copy" transform="translate(-998.000000, -472.000000)">
            <g id="Group" transform="translate(998.000000, 472.000000)">
                <g id="Group-2">
                    <path d="M19.1457896,117.935714 C20.4870679,117.935714 21.7946226,118.058561 23.05849,118.292654 C27.5276293,106.689701 39.2565332,98.0890066 53.4234977,96.8093444 C52.4079585,94.5189197 51.8446216,92.0257966 51.8446216,89.4146032 C51.8446216,78.2846135 61.9762546,69.2614595 74.474669,69.2614595 C70.3818541,64.2110594 67.5552059,57.7131055 67.5552059,50.6282132 C67.5552059,34.4512358 82.2816751,21.3365753 100.449481,21.3365753 C112.923369,21.3365753 123.774694,27.5205854 129.350579,36.6324626 C134.542476,15.6787623 155.520069,1.42108547e-14 180.61347,1.42108547e-14 C207.850616,1.42108547e-14 230.242299,18.4708145 232.854343,42.1128292 C236.86055,37.2780949 243.301751,34.1407045 250.568414,34.1407045 C262.719629,34.1407045 272.569977,42.9120209 272.569977,53.7301143 C272.569977,57.0968202 271.616519,60.2615101 269.939538,63.0276279 C272.167593,62.6652275 274.466161,62.4727663 276.814548,62.4727663 C296.83715,62.4727663 313.228337,76.3081326 314.594142,93.8302909 C319.352997,89.2460291 326.159026,86.3720784 333.725369,86.3720784 C348.111537,86.3720784 359.772993,96.7581579 359.772993,109.568429 C359.772993,122.381431 348.111537,132.76478 333.725369,132.76478 C331.934187,132.76478 330.182095,132.601666 328.493617,132.295912 C324.587048,145.579147 311.019443,155.382383 294.876584,155.382383 C279.677985,155.382383 266.764924,146.686822 262.04899,134.582924 C258.085704,156.905693 236.382288,173.972633 210.199003,173.972633 C186.500532,173.972633 166.47333,159.991214 159.947054,140.784679 C152.145413,144.875503 143.051546,147.225304 133.34299,147.225304 C117.14648,147.225304 102.667572,140.693909 93.0356613,130.429994 C92.0224213,147.322217 76.3233337,160.739902 57.1024325,160.739902 C46.0380362,160.739902 36.1463004,156.291455 29.543379,149.299381 C26.5481129,151.026754 22.9803126,152.034104 19.1457896,152.034104 C8.57191798,152.034104 -5.68434189e-14,144.39981 -5.68434189e-14,134.983544 C-5.68434189e-14,125.569325 8.57191798,117.935714 19.1457896,117.935714 L191.693711,50.6282132" id="cloud-1.2" fill="url(#linearGradient-1)" opacity="0.185732887"></path>
                    <g id="cloud-1" opacity="0.691289993">
                        <use fill="#FFFFFF" fill-rule="evenodd" xlink:href="#path-2"></use>
                        <use fill="black" fill-opacity="1" filter="url(#filter-3)" xlink:href="#path-2"></use>
                    </g>
                </g>
            </g>
        </g>
    </g>
</svg>